<svg width="32" height="32" viewBox="0 0 32 30" fill="none" xmlns="http://www.w3.org/2000/svg">
<path d="M0.336452 13.3989H24.9895L10.2339 0.589888C9.99797 0.383427 10.1412 0 10.453 0H14.182C14.3463 0 14.5022 0.0589885 14.6244 0.164326L30.5471 13.9803C30.693 14.1067 30.8099 14.263 30.8901 14.4386C30.9702 14.6142 31.0117 14.8049 31.0117 14.9979C31.0117 15.1909 30.9702 15.3816 30.8901 15.5572C30.8099 15.7328 30.693 15.889 30.5471 16.0154L14.5317 29.9157C14.4685 29.9705 14.3926 30 14.3126 30H10.4572C10.1454 30 10.0022 29.6124 10.2381 29.4101L24.9895 16.6011H0.336452C0.151059 16.6011 -0.000626442 16.4494 -0.000626442 16.264V13.736C-0.000626442 13.5506 0.151059 13.3989 0.336452 13.3989Z" fill="black"/>
</svg>
