<svg width="32" height="32" viewBox="0 0 32 30" fill="none" xmlns="http://www.w3.org/2000/svg">
<path d="M30.6753 13.3989H6.02218L20.7778 0.589888C21.0137 0.383427 20.8705 0 20.5587 0H16.8298C16.6654 0 16.5095 0.0589885 16.3873 0.164326L0.464592 13.9803C0.318758 14.1067 0.2018 14.263 0.121642 14.4386C0.0414846 14.6142 0 14.8049 0 14.9979C0 15.1909 0.0414846 15.3816 0.121642 15.5572C0.2018 15.7328 0.318758 15.889 0.464592 16.0154L16.48 29.9157C16.5432 29.9705 16.6191 30 16.6991 30H20.5545C20.8663 30 21.0095 29.6124 20.7736 29.4101L6.02218 16.6011H30.6753C30.8607 16.6011 31.0123 16.4494 31.0123 16.264V13.736C31.0123 13.5506 30.8607 13.3989 30.6753 13.3989Z" fill="black"/>
</svg>
