<svg width="30" height="32" viewBox="0 0 27 30" fill="none" xmlns="http://www.w3.org/2000/svg">
<path d="M25.2 7.5H20.1V6.9C20.1 3.09 17.01 0 13.2 0C9.39 0 6.3 3.09 6.3 6.9V7.5H1.2C0.53625 7.5 0 8.03625 0 8.7V28.8C0 29.4638 0.53625 30 1.2 30H25.2C25.8637 30 26.4 29.4638 26.4 28.8V8.7C26.4 8.03625 25.8637 7.5 25.2 7.5ZM9 6.9C9 4.57875 10.8787 2.7 13.2 2.7C15.5212 2.7 17.4 4.57875 17.4 6.9V7.5H9V6.9ZM23.7 27.3H2.7V10.2H6.3V13.5C6.3 13.665 6.435 13.8 6.6 13.8H8.7C8.865 13.8 9 13.665 9 13.5V10.2H17.4V13.5C17.4 13.665 17.535 13.8 17.7 13.8H19.8C19.965 13.8 20.1 13.665 20.1 13.5V10.2H23.7V27.3Z" fill="white"/>
</svg>
