<svg width="36" height="32" viewBox="0 0 36 32" fill="none" xmlns="http://www.w3.org/2000/svg">
<path d="M34.1817 22.686H10.5596L11.7456 20.2702L31.4526 20.2345C32.119 20.2345 32.6902 19.7585 32.8092 19.1L35.5384 3.82397C35.6098 3.42333 35.5027 3.01078 35.2409 2.69741C35.1115 2.54318 34.9501 2.41895 34.7679 2.33333C34.5857 2.2477 34.387 2.20274 34.1857 2.20156L9.11566 2.11826L8.90145 1.1107C8.76658 0.46808 8.18743 0 7.52894 0H1.40027C1.0289 0 0.672732 0.147528 0.41013 0.41013C0.147528 0.672732 0 1.0289 0 1.40027C0 1.77165 0.147528 2.12781 0.41013 2.39041C0.672732 2.65302 1.0289 2.80055 1.40027 2.80055H6.39445L7.33061 7.25127L9.6353 18.4098L6.66815 23.2533C6.51407 23.4612 6.42126 23.7082 6.40022 23.9661C6.37919 24.2241 6.43078 24.4828 6.54915 24.713C6.78716 25.1851 7.26714 25.4826 7.79869 25.4826H10.2898C9.75874 26.188 9.47189 27.0471 9.47267 27.9301C9.47267 30.1753 11.2974 32 13.5426 32C15.7878 32 17.6125 30.1753 17.6125 27.9301C17.6125 27.0455 17.319 26.1847 16.7953 25.4826H23.1858C22.6547 26.188 22.3679 27.0471 22.3687 27.9301C22.3687 30.1753 24.1934 32 26.4386 32C28.6838 32 30.5085 30.1753 30.5085 27.9301C30.5085 27.0455 30.2149 26.1847 29.6913 25.4826H34.1857C34.9552 25.4826 35.586 24.8558 35.586 24.0823C35.5837 23.7113 35.4347 23.3563 35.1716 23.0947C34.9086 22.8331 34.5527 22.6862 34.1817 22.686ZM9.69877 4.87914L32.5395 4.95451L30.3022 17.4816L12.3605 17.5133L9.69877 4.87914ZM13.5426 29.1836C12.8524 29.1836 12.2891 28.6203 12.2891 27.9301C12.2891 27.2399 12.8524 26.6766 13.5426 26.6766C14.2328 26.6766 14.7961 27.2399 14.7961 27.9301C14.7961 28.2625 14.664 28.5814 14.4289 28.8164C14.1939 29.0515 13.875 29.1836 13.5426 29.1836ZM26.4386 29.1836C25.7484 29.1836 25.1851 28.6203 25.1851 27.9301C25.1851 27.2399 25.7484 26.6766 26.4386 26.6766C27.1288 26.6766 27.6921 27.2399 27.6921 27.9301C27.6921 28.2625 27.56 28.5814 27.3249 28.8164C27.0899 29.0515 26.771 29.1836 26.4386 29.1836Z" fill="black"/>
</svg>
