<svg width="37" height="32" viewBox="0 0 37 32" fill="none" xmlns="http://www.w3.org/2000/svg">
<path d="M36 0H0.363636C0.163636 0 0 0.163636 0 0.363636V3.27273C0 3.47273 0.163636 3.63636 0.363636 3.63636H36C36.2 3.63636 36.3636 3.47273 36.3636 3.27273V0.363636C36.3636 0.163636 36.2 0 36 0ZM36 28.3636H0.363636C0.163636 28.3636 0 28.5273 0 28.7273V31.6364C0 31.8364 0.163636 32 0.363636 32H36C36.2 32 36.3636 31.8364 36.3636 31.6364V28.7273C36.3636 28.5273 36.2 28.3636 36 28.3636ZM36 14.1818H0.363636C0.163636 14.1818 0 14.3455 0 14.5455V17.4545C0 17.6545 0.163636 17.8182 0.363636 17.8182H36C36.2 17.8182 36.3636 17.6545 36.3636 17.4545V14.5455C36.3636 14.3455 36.2 14.1818 36 14.1818Z" fill="#141414"/>
</svg>
