<svg width="31" height="30" viewBox="0 0 31 30" fill="none" xmlns="http://www.w3.org/2000/svg">
<path fill-rule="evenodd" clip-rule="evenodd" d="M17.1842 0H14.8158C14.6053 0 14.5 0.111111 14.5 0.333333V14H0.848837C0.616279 14 0.5 14.1053 0.5 14.3158V16.6842C0.5 16.8947 0.616279 17 0.848837 17H14.5V29.6667C14.5 29.8889 14.6053 30 14.8158 30H17.1842C17.3947 30 17.5 29.8889 17.5 29.6667V17H30.1512C30.3837 17 30.5 16.8947 30.5 16.6842V14.3158C30.5 14.1053 30.3837 14 30.1512 14H17.5V0.333333C17.5 0.111111 17.3947 0 17.1842 0Z" fill="black"/>
</svg>
