<svg width="263" height="53" viewBox="0 0 263 53" fill="none" xmlns="http://www.w3.org/2000/svg">
<path d="M19.544 1.016C19.8 1.016 19.9707 1.05866 20.056 1.144C20.184 1.272 20.504 1.528 21.016 1.912C21.528 2.296 22.0827 2.72267 22.68 3.192C23.32 3.66133 23.896 4.10933 24.408 4.536C24.92 4.92 25.2613 5.176 25.432 5.304C25.688 5.176 26.2213 4.92 27.032 4.536C27.8853 4.10933 28.8027 3.66133 29.784 3.192C30.808 2.72267 31.7253 2.296 32.536 1.912C33.3467 1.48533 33.8587 1.208 34.072 1.08C34.2 0.994663 34.4773 0.994663 34.904 1.08C35.3733 1.12266 35.7787 1.22933 36.12 1.4C36.4613 1.528 36.5253 1.67733 36.312 1.848C35.7573 2.27467 35.0107 2.808 34.072 3.448C33.176 4.04533 32.216 4.68533 31.192 5.368C30.2107 6.008 29.2933 6.60533 28.44 7.16C27.6293 7.71466 26.9893 8.14133 26.52 8.44C26.392 8.52533 26.072 8.61066 25.56 8.696C25.048 8.73867 24.536 8.76 24.024 8.76C23.6827 8.76 23.3627 8.73867 23.064 8.696C22.808 8.65333 22.6373 8.58933 22.552 8.504C22.424 8.29066 22.104 7.864 21.592 7.224C21.1227 6.54133 20.5893 5.816 19.992 5.048C19.3947 4.28 18.8613 3.59733 18.392 3C17.9227 2.40266 17.6453 2.04 17.56 1.912C17.3893 1.69867 17.5387 1.50667 18.008 1.336C18.52 1.12267 19.032 1.016 19.544 1.016ZM13.848 52.536C9.752 52.536 6.46667 51.4907 3.992 49.4C1.51733 47.3093 0.28 44.1947 0.28 40.056C0.28 38.0933 0.664 36.28 1.432 34.616C2.24267 32.9093 3.62933 31.8853 5.592 31.544C5.37867 32.184 5.272 32.9093 5.272 33.72C5.272 35.0427 5.44267 36.536 5.784 38.2C6.168 39.8213 6.552 41.2293 6.936 42.424C7.53333 44.1307 8.344 45.6027 9.368 46.84C10.4347 48.0347 11.5653 48.9733 12.76 49.656C13.9973 50.296 15.1067 50.616 16.088 50.616C17.0267 50.616 17.7733 50.3387 18.328 49.784C18.9253 49.1867 19.224 48.2267 19.224 46.904C19.224 45.24 18.776 43.6187 17.88 42.04C16.984 40.4187 15.9173 38.7973 14.68 37.176C13.4427 35.5547 12.2693 33.9333 11.16 32.312C10.3067 30.9893 9.58133 29.6453 8.984 28.28C8.38667 26.872 8.088 25.4427 8.088 23.992C8.088 21.688 8.6 19.7467 9.624 18.168C10.648 16.5467 12.0133 15.3307 13.72 14.52C15.4693 13.6667 17.4107 13.24 19.544 13.24C20.5253 13.24 21.6133 13.304 22.808 13.432C24.0027 13.56 25.1333 13.8373 26.2 14.264L27.16 14.648C28.0133 13.4107 28.9733 12.536 30.04 12.024C31.1067 11.512 32.0453 11.256 32.856 11.256C33.496 11.256 34.008 11.384 34.392 11.64C34.8187 11.8533 35.032 12.152 35.032 12.536C35.032 12.92 34.8187 13.304 34.392 13.688C32.728 15.2667 31.4267 16.76 30.488 18.168C29.5493 19.5333 28.6533 21.112 27.8 22.904C26.9893 24.6533 26.52 26.424 26.392 28.216C26.136 28.3013 25.9653 28.344 25.88 28.344C25.4107 28.344 25.0693 28.024 24.856 27.384C24.6427 26.7013 24.536 25.848 24.536 24.824C24.536 23.6293 24.664 22.328 24.92 20.92C25.176 19.4693 25.5173 18.1893 25.944 17.08C25.688 16.824 25.3467 16.6107 24.92 16.44C24.4933 16.2267 24.0027 16.12 23.448 16.12C22.424 16.12 21.4853 16.5253 20.632 17.336C19.7787 18.1467 19.0747 19.1493 18.52 20.344C18.008 21.496 17.752 22.6267 17.752 23.736C17.752 25.1867 18.072 26.6373 18.712 28.088C19.3947 29.5387 20.2053 30.968 21.144 32.376C22.1253 33.784 23.0427 35.192 23.896 36.6C24.664 37.9227 25.2187 39.1813 25.56 40.376C25.944 41.528 26.136 42.616 26.136 43.64C26.136 46.3707 25.0053 48.5467 22.744 50.168C20.5253 51.7467 17.56 52.536 13.848 52.536ZM35.5045 51.512C33.9685 51.512 32.5818 51.0853 31.3445 50.232C30.1072 49.336 29.4885 47.8853 29.4885 45.88C29.4885 44.5573 29.7018 43.0213 30.1285 41.272C30.5978 39.5227 31.1738 37.7307 31.8565 35.896C32.5392 34.0187 33.2432 32.2907 33.9685 30.712C34.7365 29.0907 35.4192 27.768 36.0165 26.744C36.9552 25.2507 38.0005 24.3333 39.1525 23.992C40.3472 23.6507 41.7978 23.48 43.5045 23.48C44.7418 23.48 45.7658 23.6293 46.5765 23.928C47.3872 24.184 47.5152 24.4827 46.9605 24.824C46.1498 25.3787 45.1045 26.616 43.8245 28.536C42.5445 30.456 41.3072 32.6107 40.1125 35C39.7712 35.6827 39.3445 36.6 38.8325 37.752C38.3205 38.8613 37.8085 40.056 37.2965 41.336C36.8272 42.5733 36.4218 43.768 36.0805 44.92C35.7392 46.0293 35.5685 46.9467 35.5685 47.672C35.5685 48.7387 36.0592 49.272 37.0405 49.272C38.0645 49.272 39.2165 48.7813 40.4965 47.8C41.0938 47.3307 41.6485 46.7973 42.1605 46.2C42.6725 45.6027 43.1418 45.0053 43.5685 44.408C44.4218 43.256 45.1898 42.0187 45.8725 40.696C46.5978 39.3307 47.2592 38.0507 47.8565 36.856C47.9845 36.6 48.1552 36.472 48.3685 36.472C48.6672 36.472 48.9232 36.6213 49.1365 36.92C49.3498 37.2187 49.3712 37.5387 49.2005 37.88C48.5605 39.16 47.7712 40.6747 46.8325 42.424C45.8938 44.1307 44.8058 45.7093 43.5685 47.16C42.5018 48.3973 41.2858 49.4427 39.9205 50.296C38.5978 51.1067 37.1258 51.512 35.5045 51.512ZM44.6565 20.28C43.9312 20.28 43.3552 20.0453 42.9285 19.576C42.5018 19.064 42.2885 18.4027 42.2885 17.592C42.2885 16.6107 42.5445 15.7147 43.0565 14.904C43.5685 14.0933 44.2085 13.432 44.9765 12.92C45.7445 12.408 46.5338 12.152 47.3445 12.152C48.0698 12.152 48.6458 12.408 49.0725 12.92C49.4992 13.3893 49.7125 13.9867 49.7125 14.712C49.7125 15.6507 49.4565 16.5467 48.9445 17.4C48.4325 18.2533 47.7925 18.9573 47.0245 19.512C46.2565 20.024 45.4672 20.28 44.6565 20.28ZM54.6345 52.024C52.2878 52.024 50.2825 51.4053 48.6185 50.168C46.9545 48.888 46.1225 46.968 46.1225 44.408C46.1225 42.4453 46.5065 40.3333 47.2745 38.072C48.0852 35.8107 49.1305 33.656 50.4105 31.608C51.7332 29.5173 53.1838 27.7893 54.7625 26.424C55.7438 25.5707 56.8105 24.8667 57.9625 24.312C59.1145 23.7573 60.2665 23.4587 61.4185 23.416C63.3812 23.288 65.1092 23.5227 66.6025 24.12C68.0958 24.7173 68.8425 25.8907 68.8425 27.64C68.8425 28.0667 68.7785 28.5573 68.6505 29.112C68.5652 29.624 68.3732 30.2 68.0745 30.84C67.6478 31.7787 67.0932 32.696 66.4105 33.592C65.7705 34.488 65.2158 35.1067 64.7465 35.448C64.2772 35.7893 63.8078 36.0453 63.3385 36.216C62.8692 36.344 62.4425 36.408 62.0585 36.408C61.6318 36.408 61.2478 36.344 60.9065 36.216C60.6078 36.088 60.3518 35.9387 60.1385 35.768C60.6932 34.872 61.2478 33.8693 61.8025 32.76C62.3572 31.6507 62.8478 30.6267 63.2745 29.688C63.7012 28.7067 63.9572 27.96 64.0425 27.448C64.0852 27.2773 64.1065 27.128 64.1065 27C64.1492 26.872 64.1705 26.744 64.1705 26.616C64.1705 25.7627 63.8505 25.336 63.2105 25.336C62.6985 25.336 62.1438 25.6987 61.5465 26.424C60.4798 27.6187 59.4558 29.112 58.4745 30.904C57.4932 32.696 56.5758 34.616 55.7225 36.664C55.5092 37.2187 55.2105 37.9867 54.8265 38.968C54.4852 39.9493 54.1652 41.016 53.8665 42.168C53.6105 43.2773 53.4825 44.344 53.4825 45.368C53.4825 46.52 53.7385 47.5013 54.2505 48.312C54.8052 49.08 55.7865 49.464 57.1945 49.464C58.5598 49.464 59.8185 49.08 60.9705 48.312C62.1652 47.5013 63.2745 46.4773 64.2985 45.24C65.3225 43.96 66.2398 42.616 67.0505 41.208C67.8612 39.7573 68.5865 38.392 69.2265 37.112C69.3545 36.8133 69.5678 36.664 69.8665 36.664C70.1225 36.664 70.3572 36.792 70.5705 37.048C70.7838 37.304 70.8052 37.6027 70.6345 37.944C70.0372 39.1387 69.3758 40.3547 68.6505 41.592C67.9678 42.8293 67.2212 44.0453 66.4105 45.24C65.0452 47.288 63.3812 48.9307 61.4185 50.168C59.4558 51.4053 57.1945 52.024 54.6345 52.024ZM71.7825 51.384C71.1425 51.384 70.5452 51.32 69.9905 51.192C69.4785 51.1067 68.8598 50.9147 68.1345 50.616C67.1958 50.232 66.5132 49.5707 66.0865 48.632C65.7025 47.6507 65.5105 46.4987 65.5105 45.176C65.5105 43.5547 65.7665 41.7627 66.2785 39.8C66.8332 37.8373 67.5158 35.9387 68.3265 34.104C69.0945 32.3973 69.7345 30.9253 70.2465 29.688C70.8012 28.408 71.3558 27.2987 71.9105 26.36C72.5078 25.4213 73.2332 24.5893 74.0865 23.864C74.9398 23.096 76.0278 22.3707 77.3505 21.688C78.3745 21.2187 79.4838 20.984 80.6785 20.984C81.8732 20.984 82.9825 21.1547 84.0065 21.496C84.4332 21.624 84.6465 21.7947 84.6465 22.008C84.6465 22.1787 84.4972 22.3493 84.1985 22.52C83.8145 22.776 83.3025 23.224 82.6625 23.864C82.0225 24.4613 81.3398 25.272 80.6145 26.296C80.2305 26.8507 79.7185 27.64 79.0785 28.664C78.4385 29.688 77.9478 30.52 77.6065 31.16C77.2652 31.7573 76.9878 32.2693 76.7745 32.696C76.5612 33.08 76.4118 33.3787 76.3265 33.592L75.2385 35.768C75.6225 35.128 76.1772 34.3173 76.9025 33.336C77.6705 32.3547 78.5025 31.352 79.3985 30.328C80.3372 29.2613 81.2545 28.3013 82.1505 27.448C83.0465 26.5947 84.0065 25.7627 85.0305 24.952C86.0972 24.0987 87.1638 23.416 88.2305 22.904C89.2972 22.3493 90.2785 22.072 91.1745 22.072C92.0278 22.072 92.7958 22.3067 93.4785 22.776C94.1612 23.2027 94.5025 23.6507 94.5025 24.12C94.5025 24.632 94.0972 24.9947 93.2865 25.208C91.5372 25.6773 89.6598 26.424 87.6545 27.448C85.6492 28.4293 83.8572 29.4747 82.2785 30.584C82.2785 31.352 82.3425 32.3973 82.4705 33.72C82.5985 35.0427 82.7478 36.3867 82.9185 37.752C83.1318 39.1173 83.3452 40.2693 83.5585 41.208C83.7292 41.9333 83.9425 42.7867 84.1985 43.768C84.4972 44.7067 84.8812 45.5387 85.3505 46.264C85.8625 46.9467 86.4598 47.288 87.1425 47.288C87.3985 47.288 87.7398 47.1813 88.1665 46.968C88.3372 46.7973 88.4225 46.84 88.4225 47.096C88.4225 47.3947 88.3158 47.608 88.1025 47.736C86.7798 48.8453 85.4998 49.72 84.2625 50.36C83.0678 51 81.9798 51.32 80.9985 51.32C79.7612 51.32 78.8438 50.7653 78.2465 49.656C77.7345 48.8027 77.3718 47.864 77.1585 46.84C76.9452 45.7733 76.7958 44.728 76.7105 43.704C76.7105 43.448 76.6892 43.1707 76.6465 42.872C76.6465 42.5307 76.6465 42.1893 76.6465 41.848C76.6465 40.6533 76.6892 39.4587 76.7745 38.264C76.8598 37.0267 76.9452 36.2373 77.0305 35.896C76.1345 36.4507 75.3025 37.432 74.5345 38.84C73.7665 40.2053 73.1478 41.6987 72.6785 43.32C72.2518 44.9413 72.0385 46.4133 72.0385 47.736C72.0385 48.3333 72.0812 48.888 72.1665 49.4C72.2945 49.8693 72.4865 50.232 72.7425 50.488C72.9985 50.7867 72.9985 51.0213 72.7425 51.192C72.5718 51.32 72.2518 51.384 71.7825 51.384ZM100.702 51.448C97.9708 51.448 95.8375 51 94.3015 50.104C92.7655 49.208 91.9975 47.48 91.9975 44.92C91.9975 43.128 92.2748 41.2507 92.8295 39.288C93.4268 37.2827 94.2588 35.3413 95.3255 33.464C96.3922 31.5867 97.6508 29.88 99.1015 28.344C100.552 26.808 102.152 25.592 103.902 24.696C105.651 23.7573 107.507 23.288 109.47 23.288C110.75 23.288 111.966 23.3947 113.118 23.608C114.27 23.8213 115.208 24.312 115.934 25.08C116.659 25.8053 117.022 26.9573 117.022 28.536C117.022 30.2 116.574 32.3547 115.678 35C114.782 37.6453 113.566 40.2267 112.03 42.744C111.944 43.0853 111.902 43.4267 111.902 43.768C111.902 44.2373 111.987 44.7067 112.158 45.176C112.371 45.6453 112.734 45.88 113.246 45.88C113.928 45.88 114.632 45.4107 115.358 44.472C116.126 43.4053 116.915 42.1253 117.726 40.632C118.536 39.1387 119.155 37.9227 119.582 36.984C119.667 36.728 119.859 36.6 120.158 36.6C120.456 36.6 120.712 36.728 120.926 36.984C121.182 37.24 121.203 37.5387 120.99 37.88C120.648 38.52 120.2 39.416 119.646 40.568C119.091 41.6773 118.451 42.808 117.726 43.96C117 45.112 116.211 46.0293 115.358 46.712C114.718 47.224 114.035 47.48 113.31 47.48C112.456 47.48 111.816 47.288 111.39 46.904C110.963 46.4773 110.622 45.88 110.366 45.112C109 46.9467 107.486 48.4613 105.822 49.656C104.158 50.8507 102.451 51.448 100.702 51.448ZM99.4855 49.464C99.9548 49.464 100.595 48.8453 101.406 47.608C102.216 46.3707 103.091 44.792 104.03 42.872C104.968 40.9093 105.886 38.9253 106.782 36.92C106.952 36.5787 107.23 35.96 107.614 35.064C107.998 34.1253 108.403 33.1013 108.83 31.992C109.256 30.84 109.619 29.7307 109.918 28.664C110.216 27.5973 110.366 26.744 110.366 26.104C110.366 25.3787 110.152 25.016 109.726 25.016C109.342 25.016 108.851 25.4 108.253 26.168C107.656 26.8933 106.995 27.8533 106.27 29.048C105.544 30.2427 104.84 31.5227 104.158 32.888C103.475 34.2533 102.878 35.5333 102.366 36.728C101.854 37.9227 101.32 39.2667 100.766 40.76C100.211 42.2533 99.7415 43.6827 99.3575 45.048C99.0162 46.3707 98.8455 47.4373 98.8455 48.248C98.8455 49.0587 99.0588 49.464 99.4855 49.464ZM155.208 51.512C153.075 51.512 151.624 50.936 150.856 49.784C150.088 48.632 149.704 47.288 149.704 45.752C149.704 44.6 149.832 43.4693 150.088 42.36C150.344 41.208 150.621 40.2053 150.92 39.352C151.219 38.456 151.411 37.8373 151.496 37.496C151.965 36.088 152.52 34.68 153.16 33.272C153.843 31.864 154.291 30.6907 154.504 29.752C153.992 30.1787 153.309 30.9893 152.456 32.184C151.603 33.336 150.664 34.68 149.64 36.216C148.659 37.752 147.72 39.352 146.824 41.016C145.971 42.6373 145.245 44.1733 144.648 45.624C144.093 47.0747 143.816 48.2693 143.816 49.208C143.816 49.8053 143.944 50.2747 144.2 50.616C143.816 50.744 143.432 50.872 143.048 51C142.664 51.0853 142.28 51.128 141.896 51.128C140.403 51.128 139.357 50.7227 138.76 49.912C138.205 49.1013 137.928 48.12 137.928 46.968C137.928 45.56 138.184 44.0667 138.696 42.488C139.251 40.9093 139.741 39.6293 140.168 38.648C140.509 37.88 140.936 36.856 141.448 35.576C142.003 34.296 142.557 33.0373 143.112 31.8C143.709 30.52 144.221 29.5387 144.648 28.856C144.179 29.2827 143.453 30.0933 142.472 31.288C141.533 32.4827 140.488 33.8907 139.336 35.512C138.184 37.1333 137.075 38.8187 136.008 40.568C134.941 42.2747 134.067 43.896 133.384 45.432C132.701 46.968 132.36 48.248 132.36 49.272C132.36 49.9547 132.509 50.4453 132.808 50.744C132.936 50.872 133 50.9787 133 51.064C133 51.2773 132.765 51.3413 132.296 51.256C131.315 51.0853 130.355 50.9147 129.416 50.744C128.477 50.5307 127.688 50.1253 127.048 49.528C126.451 48.888 126.152 47.8427 126.152 46.392C126.152 45.24 126.451 43.8533 127.048 42.232C127.645 40.568 128.349 38.8613 129.16 37.112C129.971 35.3627 130.675 33.7413 131.272 32.248C131.4 31.9067 131.613 31.3947 131.912 30.712C132.211 29.9867 132.509 29.24 132.808 28.472C133.149 27.6613 133.405 26.9573 133.576 26.36C133.747 25.72 133.789 25.2933 133.704 25.08C133.619 24.9093 133.576 24.7813 133.576 24.696C133.576 24.184 133.917 23.928 134.6 23.928C135.283 23.928 135.965 24.0347 136.648 24.248C137.373 24.4187 138.013 24.7173 138.568 25.144C139.165 25.5707 139.635 26.0827 139.976 26.68C140.317 27.2773 140.488 27.9387 140.488 28.664C140.488 29.1333 140.381 29.688 140.168 30.328C140.04 30.712 139.784 31.2453 139.4 31.928C139.059 32.568 138.717 33.208 138.376 33.848C138.077 34.4453 137.907 34.872 137.864 35.128C138.547 34.1467 139.293 33.0587 140.104 31.864C140.957 30.6693 141.768 29.5387 142.536 28.472C143.347 27.3627 144.051 26.424 144.648 25.656C145.288 24.8453 145.757 24.3333 146.056 24.12C146.525 23.7787 147.08 23.608 147.72 23.608C148.616 23.608 149.597 23.864 150.664 24.376C151.389 24.6747 151.88 25.08 152.136 25.592C152.435 26.0613 152.584 26.5947 152.584 27.192C152.584 28.0453 152.349 28.9413 151.88 29.88C151.453 30.776 151.048 31.5867 150.664 32.312C151.517 31.1173 152.371 29.9227 153.224 28.728C154.12 27.5333 154.931 26.4667 155.656 25.528C156.424 24.5893 157.043 23.9493 157.512 23.608C157.853 23.352 158.408 23.224 159.176 23.224C160.072 23.224 160.989 23.5013 161.928 24.056C162.867 24.6107 163.336 25.6133 163.336 27.064C163.336 27.6187 163.229 28.2587 163.016 28.984C162.803 29.7093 162.461 30.52 161.992 31.416C160.157 34.9147 158.749 38.072 157.768 40.888C156.787 43.6613 156.296 45.7093 156.296 47.032C156.296 47.9707 156.552 48.44 157.064 48.44C157.661 48.44 158.323 48.056 159.048 47.288C159.816 46.52 160.563 45.6027 161.288 44.536C162.227 43.1707 163.08 41.72 163.848 40.184C164.659 38.648 165.213 37.5813 165.512 36.984C165.64 36.728 165.832 36.6 166.088 36.6C166.344 36.6 166.579 36.7493 166.792 37.048C167.048 37.304 167.091 37.6027 166.92 37.944C166.621 38.5413 166.173 39.3733 165.576 40.44C165.021 41.464 164.381 42.5947 163.656 43.832C162.931 45.0267 162.141 46.1787 161.288 47.288C160.349 48.4827 159.368 49.4853 158.344 50.296C157.32 51.1067 156.275 51.512 155.208 51.512ZM172.577 51.448C169.846 51.448 167.713 51 166.177 50.104C164.641 49.208 163.873 47.48 163.873 44.92C163.873 43.128 164.15 41.2507 164.705 39.288C165.302 37.2827 166.134 35.3413 167.201 33.464C168.267 31.5867 169.526 29.88 170.977 28.344C172.427 26.808 174.027 25.592 175.777 24.696C177.526 23.7573 179.382 23.288 181.345 23.288C182.625 23.288 183.841 23.3947 184.993 23.608C186.145 23.8213 187.083 24.312 187.809 25.08C188.534 25.8053 188.897 26.9573 188.897 28.536C188.897 30.2 188.449 32.3547 187.553 35C186.657 37.6453 185.441 40.2267 183.905 42.744C183.819 43.0853 183.777 43.4267 183.777 43.768C183.777 44.2373 183.862 44.7067 184.033 45.176C184.246 45.6453 184.609 45.88 185.121 45.88C185.803 45.88 186.507 45.4107 187.233 44.472C188.001 43.4053 188.79 42.1253 189.601 40.632C190.411 39.1387 191.03 37.9227 191.457 36.984C191.542 36.728 191.734 36.6 192.033 36.6C192.331 36.6 192.587 36.728 192.801 36.984C193.057 37.24 193.078 37.5387 192.865 37.88C192.523 38.52 192.075 39.416 191.521 40.568C190.966 41.6773 190.326 42.808 189.601 43.96C188.875 45.112 188.086 46.0293 187.233 46.712C186.593 47.224 185.91 47.48 185.185 47.48C184.331 47.48 183.691 47.288 183.265 46.904C182.838 46.4773 182.497 45.88 182.241 45.112C180.875 46.9467 179.361 48.4613 177.697 49.656C176.033 50.8507 174.326 51.448 172.577 51.448ZM171.361 49.464C171.83 49.464 172.47 48.8453 173.281 47.608C174.091 46.3707 174.966 44.792 175.905 42.872C176.843 40.9093 177.761 38.9253 178.657 36.92C178.827 36.5787 179.105 35.96 179.489 35.064C179.873 34.1253 180.278 33.1013 180.705 31.992C181.131 30.84 181.494 29.7307 181.793 28.664C182.091 27.5973 182.241 26.744 182.241 26.104C182.241 25.3787 182.027 25.016 181.601 25.016C181.217 25.016 180.726 25.4 180.128 26.168C179.531 26.8933 178.87 27.8533 178.145 29.048C177.419 30.2427 176.715 31.5227 176.033 32.888C175.35 34.2533 174.753 35.5333 174.241 36.728C173.729 37.9227 173.195 39.2667 172.641 40.76C172.086 42.2533 171.617 43.6827 171.233 45.048C170.891 46.3707 170.72 47.4373 170.72 48.248C170.72 49.0587 170.934 49.464 171.361 49.464ZM216.306 12.856C216.434 12.7707 216.711 12.7707 217.138 12.856C217.607 12.8987 218.013 13.0053 218.354 13.176C218.695 13.304 218.759 13.4533 218.546 13.624C217.778 14.1787 216.882 14.84 215.858 15.608C214.877 16.376 213.895 17.1013 212.914 17.784C211.975 18.4667 211.207 19.0213 210.61 19.448C210.482 19.5333 210.162 19.6187 209.65 19.704C209.138 19.7467 208.626 19.768 208.114 19.768C207.773 19.768 207.453 19.7467 207.154 19.704C206.898 19.6613 206.727 19.5973 206.642 19.512C206.514 19.2987 206.258 18.9147 205.874 18.36C205.533 17.8053 205.127 17.208 204.658 16.568C204.231 15.8853 203.847 15.288 203.506 14.776C203.165 14.264 202.951 13.944 202.866 13.816C202.695 13.6027 202.845 13.4107 203.314 13.24C203.826 13.0267 204.338 12.92 204.85 12.92C205.106 12.92 205.277 12.9627 205.362 13.048C205.575 13.2187 205.959 13.5387 206.514 14.008C207.111 14.4347 207.709 14.8827 208.306 15.352C208.903 15.7787 209.309 16.0987 209.522 16.312C209.778 16.184 210.226 15.9707 210.866 15.672C211.506 15.3307 212.21 14.968 212.978 14.584C213.746 14.2 214.429 13.8587 215.026 13.56C215.666 13.2187 216.093 12.984 216.306 12.856ZM189.618 51.896C189.362 51.896 189.106 51.768 188.85 51.512C188.637 51.2987 188.551 51.064 188.594 50.808C188.722 50.2107 188.957 49.6773 189.298 49.208C189.639 48.696 189.917 48.2693 190.13 47.928C190.855 46.8613 191.858 45.6027 193.138 44.152C194.418 42.7013 195.847 41.208 197.426 39.672C199.005 38.0933 200.605 36.6213 202.226 35.256C203.847 33.848 205.341 32.6533 206.706 31.672C206.834 31.3733 206.642 31.16 206.13 31.032C205.618 30.8613 204.978 30.7547 204.21 30.712C203.485 30.6267 202.759 30.584 202.034 30.584C201.181 30.584 200.541 30.6267 200.114 30.712C198.834 30.968 197.746 31.5227 196.85 32.376C195.954 33.1867 195.101 34.296 194.29 35.704C193.479 37.0693 192.519 38.7547 191.41 40.76C191.239 41.1013 191.047 41.272 190.834 41.272C190.493 41.272 190.322 40.8667 190.322 40.056C190.322 39.5013 190.45 38.968 190.706 38.456C191.645 36.5787 192.626 34.7227 193.65 32.888C194.674 31.0107 195.485 29.5813 196.082 28.6C197.191 26.808 198.194 25.592 199.09 24.952C200.029 24.312 200.925 23.992 201.778 23.992C202.887 23.992 203.997 24.2693 205.106 24.824C206.258 25.336 207.602 25.6133 209.138 25.656C210.119 25.656 210.887 25.528 211.442 25.272C211.911 25.0587 212.274 24.76 212.53 24.376C212.786 23.992 212.935 23.5867 212.978 23.16C213.021 22.9467 213.127 22.7973 213.298 22.712C213.511 22.6267 213.703 22.584 213.874 22.584C214.386 22.584 214.642 22.8187 214.642 23.288C214.642 25.5493 213.981 27.7253 212.658 29.816C211.335 31.9067 209.479 33.9973 207.09 36.088C204.743 38.136 201.949 40.3333 198.706 42.68C198.663 42.7653 199.133 43.0427 200.114 43.512C201.138 43.9813 202.247 44.344 203.442 44.6C203.911 44.6853 204.359 44.7707 204.786 44.856C205.255 44.8987 205.703 44.92 206.13 44.92C207.111 44.92 208.029 44.7493 208.882 44.408C209.735 44.024 210.461 43.384 211.058 42.488C211.741 41.5067 212.359 40.4827 212.914 39.416C213.469 38.3067 213.853 37.5387 214.066 37.112C214.151 36.856 214.343 36.728 214.642 36.728C214.941 36.728 215.197 36.856 215.41 37.112C215.623 37.368 215.645 37.6667 215.474 38.008C214.962 39.1173 214.301 40.4187 213.49 41.912C212.679 43.4053 211.805 44.8347 210.866 46.2C209.97 47.5653 209.053 48.696 208.114 49.592C207.474 50.1893 206.77 50.616 206.002 50.872C205.234 51.128 204.423 51.256 203.57 51.256C202.29 51.256 200.989 51.064 199.666 50.68C198.386 50.2533 197.191 49.848 196.082 49.464C195.399 49.208 194.759 49.0373 194.162 48.952C193.565 48.824 193.053 48.76 192.626 48.76C192.199 48.76 191.751 49.0373 191.282 49.592C190.813 50.104 190.514 50.616 190.386 51.128C190.258 51.64 190.002 51.896 189.618 51.896ZM229.011 51.512C226.835 51.512 225.363 50.9147 224.595 49.72C223.827 48.5253 223.443 47.1387 223.443 45.56C223.443 44.408 223.571 43.256 223.827 42.104C224.083 40.952 224.36 39.928 224.659 39.032C224.958 38.136 225.171 37.5173 225.299 37.176C225.811 35.64 226.344 34.168 226.899 32.76C227.496 31.3093 227.944 30.3067 228.243 29.752C228.115 29.9653 227.646 30.584 226.835 31.608C226.024 32.632 225.064 33.912 223.955 35.448C222.888 36.9413 221.822 38.5413 220.755 40.248C219.688 41.912 218.792 43.5333 218.067 45.112C217.384 46.648 217.043 47.9707 217.043 49.08C217.043 49.848 217.214 50.4027 217.555 50.744C217.683 50.872 217.747 50.9787 217.747 51.064C217.747 51.2773 217.512 51.3413 217.043 51.256C216.062 51.0853 215.102 50.9147 214.163 50.744C213.224 50.5307 212.435 50.1253 211.795 49.528C211.198 48.888 210.899 47.8427 210.899 46.392C210.899 45.24 211.198 43.8533 211.795 42.232C212.392 40.568 213.096 38.8613 213.907 37.112C214.718 35.3627 215.422 33.7413 216.019 32.248C216.147 31.9067 216.36 31.3947 216.659 30.712C216.958 29.9867 217.256 29.24 217.555 28.472C217.896 27.6613 218.152 26.9573 218.323 26.36C218.494 25.72 218.536 25.2933 218.451 25.08C218.366 24.9093 218.323 24.7813 218.323 24.696C218.323 24.184 218.664 23.928 219.347 23.928C220.03 23.928 220.712 24.0347 221.395 24.248C222.12 24.4187 222.76 24.7173 223.315 25.144C223.912 25.5707 224.382 26.0827 224.723 26.68C225.064 27.2773 225.235 27.9387 225.235 28.664C225.235 29.1333 225.128 29.688 224.915 30.328C224.83 30.6267 224.638 31.032 224.339 31.544C224.083 32.0133 223.806 32.5253 223.507 33.08C223.208 33.6347 222.888 34.2107 222.547 34.808C222.248 35.4053 222.142 35.7253 222.227 35.768C223.294 33.8907 224.446 32.1413 225.683 30.52C226.963 28.856 228.115 27.4267 229.139 26.232C230.206 25.0373 230.91 24.1627 231.251 23.608C231.592 23.352 232.147 23.224 232.915 23.224C233.811 23.224 234.728 23.5013 235.667 24.056C236.606 24.6107 237.075 25.6133 237.075 27.064C237.075 28.2587 236.648 29.7093 235.795 31.416C233.96 34.9147 232.552 38.072 231.571 40.888C230.59 43.6613 230.099 45.7093 230.099 47.032C230.099 47.9707 230.355 48.44 230.867 48.44C231.464 48.44 232.147 48.056 232.915 47.288C233.683 46.52 234.408 45.6027 235.091 44.536C236.03 43.1707 236.883 41.72 237.651 40.184C238.462 38.648 239.016 37.5813 239.315 36.984C239.443 36.728 239.635 36.6 239.891 36.6C240.147 36.6 240.382 36.7493 240.595 37.048C240.851 37.304 240.894 37.6027 240.723 37.944C240.424 38.5413 239.976 39.3733 239.379 40.44C238.824 41.5067 238.184 42.6587 237.459 43.896C236.734 45.0907 235.944 46.2427 235.091 47.352C234.152 48.632 233.214 49.656 232.275 50.424C231.336 51.1493 230.248 51.512 229.011 51.512ZM246.519 51.96C243.404 51.96 241.143 51.256 239.735 49.848C238.369 48.44 237.687 46.584 237.687 44.28C237.687 42.5307 238.049 40.6107 238.775 38.52C239.329 36.8133 240.076 35.0853 241.015 33.336C241.953 31.544 243.041 29.9013 244.279 28.408C245.516 26.872 246.881 25.656 248.375 24.76C249.868 23.8213 251.447 23.352 253.111 23.352C255.244 23.352 256.972 23.6933 258.295 24.376C259.66 25.016 260.343 26.0827 260.343 27.576C260.343 28.6853 259.895 30.072 258.999 31.736C257.804 34.04 256.055 35.9387 253.751 37.432C251.447 38.9253 248.865 39.7787 246.007 39.992C245.367 41.7413 244.983 43.1707 244.855 44.28C244.812 44.4933 244.791 44.7067 244.791 44.92C244.791 45.0907 244.791 45.2827 244.791 45.496C244.791 46.904 245.111 47.928 245.751 48.568C246.391 49.1653 247.18 49.464 248.119 49.464C249.868 49.464 251.404 49.016 252.727 48.12C254.049 47.224 255.201 46.0933 256.183 44.728C257.207 43.3627 258.081 41.9973 258.807 40.632C259.233 39.864 259.596 39.16 259.895 38.52C260.193 37.8373 260.428 37.3467 260.599 37.048C260.812 36.7067 261.047 36.536 261.303 36.536C261.559 36.536 261.793 36.6853 262.007 36.984C262.22 37.24 262.241 37.5387 262.071 37.88C261.516 38.9893 260.748 40.4613 259.767 42.296C258.785 44.1307 257.676 45.752 256.439 47.16C255.073 48.7813 253.601 49.9973 252.023 50.808C250.487 51.576 248.652 51.96 246.519 51.96ZM246.839 38.136C248.759 37.4107 250.444 36.1093 251.895 34.232C253.388 32.3547 254.391 30.2853 254.903 28.024C254.945 27.8107 254.967 27.6187 254.967 27.448C255.009 27.2773 255.031 27.1067 255.031 26.936C255.031 26.0827 254.775 25.656 254.263 25.656C253.836 25.656 253.388 25.9547 252.919 26.552C252.236 27.3627 251.511 28.472 250.743 29.88C249.975 31.2453 249.292 32.5893 248.695 33.912C248.097 35.2347 247.649 36.2373 247.351 36.92L246.839 38.136Z" fill="black"/>
</svg>
