<svg width="30" height="30" viewBox="0 0 30 30" fill="none" xmlns="http://www.w3.org/2000/svg">
<path d="M9.2 2.7H8.9C9.065 2.7 9.2 2.565 9.2 2.4V2.7H20.6V2.4C20.6 2.565 20.735 2.7 20.9 2.7H20.6V5.4H23.3V2.4C23.3 1.07625 22.2237 0 20.9 0H8.9C7.57625 0 6.5 1.07625 6.5 2.4V5.4H9.2V2.7ZM28.1 5.4H1.7C1.03625 5.4 0.5 5.93625 0.5 6.6V7.8C0.5 7.965 0.635 8.1 0.8 8.1H3.065L3.99125 27.7125C4.05125 28.9913 5.10875 30 6.3875 30H23.4125C24.695 30 25.7487 28.995 25.8088 27.7125L26.735 8.1H29C29.165 8.1 29.3 7.965 29.3 7.8V6.6C29.3 5.93625 28.7637 5.4 28.1 5.4ZM23.1237 27.3H6.67625L5.76875 8.1H24.0312L23.1237 27.3Z" fill="white"/>
</svg>
