<svg width="180" height="88" viewBox="0 0 180 88" fill="none" xmlns="http://www.w3.org/2000/svg">
<g clip-path="url(#clip0_606_1794)">
<path d="M72.1216 1.14943C65.2581 16.612 58.3923 32.0792 51.5242 47.5509C51.3887 47.8459 51.3296 48.1704 51.3524 48.4943C51.3753 48.8183 51.4793 49.1312 51.6548 49.4041C51.8303 49.677 52.0717 49.9011 52.3566 50.0555C52.6415 50.21 52.9606 50.2898 53.2844 50.2877C53.6568 50.2892 54.0215 50.182 54.3341 49.9791C54.6467 49.7762 54.8936 49.4864 55.0447 49.1451L64.3302 28.2158C64.4809 27.8738 64.7276 27.583 65.0401 27.379C65.3526 27.1749 65.7175 27.0663 66.0904 27.0664H80.7999C81.312 27.0664 81.8031 27.2704 82.1652 27.6335C82.5273 27.9966 82.7307 28.4891 82.7307 29.0026V48.3377C82.7325 48.8501 82.9367 49.3408 83.2986 49.7025C83.6605 50.0641 84.1506 50.2671 84.6615 50.2671C85.1717 50.2671 85.6611 50.0639 86.0219 49.702C86.3827 49.3402 86.5854 48.8494 86.5854 48.3377V1.93625C86.5854 1.42391 86.3829 0.932447 86.0223 0.569527C85.6617 0.206606 85.1724 0.00181039 84.6615 0H73.8818C73.5093 0.00161912 73.1451 0.110905 72.8329 0.314766C72.5207 0.518627 72.2737 0.80842 72.1216 1.14943ZM80.7999 23.2007H69.5222C69.199 23.2011 68.8809 23.1201 68.597 22.9652C68.3132 22.8103 68.0726 22.5864 67.8974 22.314C67.7223 22.0417 67.6181 21.7296 67.5944 21.4063C67.5707 21.0831 67.6283 20.7591 67.7619 20.464C70.0361 15.3052 72.3262 10.1488 74.6323 4.99456C74.7875 4.65313 75.0386 4.36448 75.3549 4.16398C75.6711 3.96347 76.0388 3.85979 76.413 3.86565H80.8203C81.3324 3.86565 81.8235 4.06965 82.1856 4.43276C82.5477 4.79588 82.7511 5.28837 82.7511 5.8019V21.2713C82.7512 21.527 82.7005 21.7802 82.6021 22.0161C82.5037 22.252 82.3596 22.4659 82.178 22.6454C81.9965 22.8249 81.7811 22.9665 81.5445 23.0618C81.3079 23.1571 81.0548 23.2044 80.7999 23.2007Z" fill="white"/>
<path d="M103.357 0H92.3722C91.8601 0 91.369 0.203997 91.0069 0.567113C90.6448 0.93023 90.4414 1.42272 90.4414 1.93625V25.137C90.4432 25.6493 90.6474 26.1401 91.0093 26.5017C91.3712 26.8633 91.8613 27.0664 92.3722 27.0664H111.155C111.527 27.068 111.891 27.1773 112.204 27.3812C112.516 27.585 112.763 27.8748 112.915 28.2158C115.189 33.3746 117.477 38.5311 119.778 43.6853C119.914 43.9802 119.973 44.3047 119.95 44.6287C119.927 44.9526 119.823 45.2655 119.648 45.5385C119.472 45.8114 119.231 46.0354 118.946 46.1899C118.661 46.3443 118.342 46.4242 118.018 46.422H92.3722C92.1186 46.422 91.8676 46.4721 91.6333 46.5694C91.3991 46.6667 91.1862 46.8093 91.0069 46.9891C90.8276 47.1689 90.6854 47.3824 90.5884 47.6173C90.4913 47.8522 90.4414 48.104 90.4414 48.3583C90.4432 48.8706 90.6474 49.3613 91.0093 49.723C91.3712 50.0846 91.8613 50.2877 92.3722 50.2877H123.961C124.285 50.2898 124.604 50.21 124.889 50.0555C125.173 49.9011 125.415 49.677 125.59 49.4041C125.766 49.1312 125.87 48.8183 125.893 48.4943C125.916 48.1704 125.856 47.8459 125.721 47.5509C118.848 32.0838 111.98 16.6166 105.117 1.14943C104.965 0.807902 104.719 0.517635 104.406 0.313672C104.094 0.109708 103.729 0.000767387 103.357 0V0ZM94.303 21.2713V5.8019C94.3029 5.29424 94.5016 4.80687 94.8564 4.44472C95.2111 4.08257 95.6935 3.87462 96.1997 3.86565H100.825C101.198 3.86556 101.563 3.97415 101.876 4.17822C102.188 4.38229 102.435 4.67303 102.586 5.01508C104.86 10.1693 107.15 15.3258 109.456 20.4845C109.59 20.7796 109.647 21.1036 109.623 21.4269C109.6 21.7501 109.496 22.0622 109.32 22.3345C109.145 22.6069 108.905 22.8308 108.621 22.9857C108.337 23.1406 108.019 23.2216 107.696 23.2213H96.1997C95.6906 23.2141 95.2051 23.0048 94.8496 22.6393C94.4941 22.2738 94.2975 21.7819 94.303 21.2713Z" fill="white"/>
<path d="M16.0535 83.8402H5.86059L4.26411 87.658H0L8.81477 66.5098H13.0789L21.8868 87.658H17.65L16.0535 83.8402ZM14.689 80.5151L10.9707 71.6206L7.25922 80.5151H14.689Z" fill="white"/>
<path d="M24.9297 66.5098H28.7708V76.8547L38.0086 66.5098H42.7025L34.263 75.8352L43.3165 87.658H38.5885L31.6226 78.5446L28.7708 81.6234V87.658H24.9297V66.5098Z" fill="white"/>
<path d="M44.5156 84.5781L46.7261 81.8414C48.5862 83.6541 51.0712 84.6783 53.6647 84.7013C56.2709 84.7013 57.6218 83.4082 57.6218 81.903C57.6218 80.1446 56.1208 79.563 52.7436 78.7625C48.384 77.7431 45.348 76.4842 45.348 72.5091C45.348 68.8145 48.4727 66.1051 52.9279 66.1051C55.8632 66.0568 58.7105 67.1111 60.9103 69.0608L58.8226 71.8933C57.1703 70.3593 55.0214 69.475 52.7709 69.4029C50.6559 69.4029 49.2096 70.696 49.2096 72.1396C49.2096 73.8638 50.7788 74.4795 54.1218 75.2458C58.5156 76.2311 61.4629 77.6473 61.4629 81.4993C61.4629 85.3513 58.577 87.9648 53.5419 87.9648C50.2095 88.0497 46.974 86.8358 44.5156 84.5781Z" fill="white"/>
<path d="M65.0273 66.5098H68.8343V87.658H65.0273V66.5098Z" fill="white"/>
<path d="M73.5273 66.5098H77.3685L84.307 79.4067L91.2729 66.5098H95.0799V87.658H91.2729V73.5295L84.307 86.4264L77.3685 73.5295V87.658H73.5273V66.5098Z" fill="white"/>
<path d="M108.711 66.5098H112.573L123.714 81.3771V66.5098H127.521V87.658H123.693L112.573 72.7906V87.658H108.731L108.711 66.5098Z" fill="white"/>
<path d="M132.199 66.5098H136.006V87.658H132.199V66.5098Z" fill="white"/>
<path d="M140.703 66.5098H144.544L155.686 81.3771V66.5098H159.493V87.658H155.686L144.544 72.7906V87.658H140.703V66.5098Z" fill="white"/>
<path d="M167.963 70.0196V75.1305H178.879V78.6404H167.963V84.1139H179.998V87.6238H164.129V66.5098H179.998V70.0196H167.963Z" fill="white"/>
</g>
<defs>
<clipPath id="clip0_606_1794">
<rect width="180" height="88" fill="white"/>
</clipPath>
</defs>
</svg>
